<svg xmlns="http://www.w3.org/2000/svg" width="55" height="42" viewBox="0 0 55 42">
  <defs>
    <style>
      .cls-1 {
        fill: #0f7bff;
        fill-rule: evenodd;
      }
    </style>
  </defs>
  <path id="Forma_1" data-name="Forma 1" class="cls-1" d="M407.923,1380.2H406.13a45.291,45.291,0,0,0,4.507,6.41,6.27,6.27,0,0,1-.719,8.88,6.363,6.363,0,0,1-8.936-.7c-1.669-1.94-9.982-10.39-9.982-20.89v-10.5a8.431,8.431,0,0,1,8.462-8.4h8.461a8.431,8.431,0,0,1,8.462,8.4v8.4A8.431,8.431,0,0,1,407.923,1380.2Zm4.231-16.8a4.217,4.217,0,0,0-4.231-4.2h-8.461a4.22,4.22,0,0,0-4.231,4.2v10.5c0,8.11,6.346,15.22,8.428,17.55l0.541,0.61a2.107,2.107,0,0,0,3.211-2.73,50.533,50.533,0,0,1-4.946-7.03,4.161,4.161,0,0,1,.005-4.2,4.223,4.223,0,0,1,3.66-2.1h1.793a4.217,4.217,0,0,0,4.231-4.2v-8.4Zm25.384,16.8h-1.793a45.373,45.373,0,0,0,4.507,6.41,6.269,6.269,0,0,1-.718,8.88,6.364,6.364,0,0,1-8.937-.7c-1.669-1.94-9.982-10.39-9.982-20.89v-10.5a8.431,8.431,0,0,1,8.462-8.4h8.461a8.431,8.431,0,0,1,8.462,8.4v8.4A8.431,8.431,0,0,1,437.538,1380.2Zm4.231-16.8a4.216,4.216,0,0,0-4.231-4.2h-8.461a4.217,4.217,0,0,0-4.231,4.2v10.5c0,8.12,6.346,15.22,8.433,17.56l0.537,0.61a2.112,2.112,0,0,0,3.214-2.74,50.216,50.216,0,0,1-4.95-7.03,4.177,4.177,0,0,1,0-4.2,4.238,4.238,0,0,1,3.665-2.1h1.793a4.216,4.216,0,0,0,4.231-4.2v-8.4Z" transform="translate(-391 -1355)"/>
</svg>
